<svg width="200" height="200" viewBox="0 0 200 200" fill="none" xmlns="http://www.w3.org/2000/svg">
<circle cx="100" cy="100" r="100" fill="#4356FF"/>
<path d="M174.57 95.9099L178 90.575H21L24.4296 95.9099H113.79H174.57Z" fill="white"/>
<path d="M166.949 103.531L170.379 98.1963H28.6214L32.051 103.531H121.411H166.949Z" fill="white"/>
<path d="M159.328 111.153L162.757 105.818H36.2427L39.6723 111.153H129.033H159.328Z" fill="white"/>
<path d="M136.464 118.774L139.893 113.439H104.835L108.265 118.774H136.654H136.464Z" fill="white"/>
<path d="M86.9248 118.774L90.3544 113.439H55.2961L58.7257 118.774H87.1153H86.9248Z" fill="white"/>
<rect x="59.4878" y="90.575" width="79.2621" height="20.5777" rx="10.2888" fill="#4356FF"/>
<path d="M87.3058 100.102L98.3568 78L109.408 100.102L98.3568 122.966L87.3058 100.102Z" stroke="white" stroke-width="3"/>
<path d="M68.6334 92.4927H67.8834V93.2427V108.104V108.854H68.6334H73.5873H74.3373V108.104V101.995H74.4198L81.0594 108.635L81.2791 108.854H81.5897H87.3058H87.6578H88.83H89.2395H93.4028H93.8381L94.054 108.476L95.3624 106.187H101.732L103.04 108.476L103.256 108.854H103.692H109.027H110.311L109.68 107.736L101.296 92.8742L101.081 92.4927H100.643H95.6892H95.2094L95.0083 92.9284L88.1491 107.79L88.1268 107.838L87.8115 107.55L79.6729 100.12L87.0317 93.8121L88.5711 92.4927H86.5436H81.2087H80.9251L80.7124 92.6803L74.4469 98.2087H74.3373V93.2427V92.4927H73.5873H68.6334ZM100.155 102.019H96.8669L98.4015 98.731L100.155 102.019Z" fill="white" stroke="#4356FF" stroke-width="1.5"/>
<path d="M112.075 92.4927H111.325V93.2427V108.104V108.854H112.075H117.41H117.773L117.998 108.57L125.013 99.7087H125.043V108.104V108.854H125.793H130.747H131.497V108.104V93.2427V92.4927H130.747H125.793H125.454L125.23 92.7472L117.398 101.648V93.2427V92.4927H116.648H112.075Z" fill="white" stroke="#4356FF" stroke-width="1.5"/>
</svg>
