<svg width="51" height="38" viewBox="0 0 51 38" fill="none" xmlns="http://www.w3.org/2000/svg">
<path d="M49.7944 31.1099C49.2957 33.7283 47.176 35.7233 44.5575 36.0974C40.4428 36.7209 33.585 37.469 25.8543 37.469C18.2483 37.469 11.3904 36.7209 7.15104 36.0974C4.53259 35.7233 2.41289 33.7283 1.91413 31.1099C1.41538 28.2421 0.916626 24.0026 0.916626 18.7657C0.916626 13.5288 1.41538 9.28943 1.91413 6.4216C2.41289 3.80315 4.53259 1.80814 7.15104 1.43407C11.2658 0.81063 18.1236 0.0625 25.8543 0.0625C33.585 0.0625 40.3181 0.81063 44.5575 1.43407C47.176 1.80814 49.2957 3.80315 49.7944 6.4216C50.2932 9.28943 50.9166 13.5288 50.9166 18.7657C50.7919 24.0026 50.2932 28.2421 49.7944 31.1099Z" fill="#FF3D00"/>
<path d="M20.8668 27.4939V10.0375L35.8294 18.7657L20.8668 27.4939Z" fill="white"/>
</svg>
